<?xml version="1.0" standalone="no"?><!DOCTYPE svg PUBLIC "-//W3C//DTD SVG 1.1//EN" "http://www.w3.org/Graphics/SVG/1.1/DTD/svg11.dtd"><svg t="1594198035695" class="icon" viewBox="0 0 1024 1024" version="1.1" xmlns="http://www.w3.org/2000/svg" p-id="4515" xmlns:xlink="http://www.w3.org/1999/xlink" width="200" height="200"><defs><style type="text/css"></style></defs><path d="M479.476364 514.164364C465.489455 512.733091 451.234909 512 436.468364 512c-96.919273 0-175.767273-80.104727-175.767273-178.56 0-97.780364 78.848-177.326545 175.767273-177.326545 96.919273 0 175.767273 78.498909 175.767273 174.999273 0 31.208727-8.343273 62.824727-23.505455 89.029818-6.434909 11.136-2.629818 25.367273 8.494545 31.802182 11.124364 6.434909 25.355636 2.629818 31.790545-8.494545 19.467636-33.664 29.754182-72.494545 29.754182-112.337455 0-122.158545-99.723636-221.544727-222.312727-221.544727s-222.312727 100.421818-222.312727 223.872C214.155636 457.565091 313.890909 558.545455 437.096727 558.545455c12.555636 0 25.216 0.651636 37.620364 1.92 0.802909 0.093091 1.617455 0.128 2.408727 0.128 11.787636 0 21.888-8.925091 23.121455-20.887273C501.562182 526.906182 492.264727 515.479273 479.476364 514.164364z" p-id="4516"></path><path d="M829.998545 838.097455c-12.695273 2.048-21.317818 13.998545-19.269818 26.682182 3.013818 18.664727 4.549818 37.818182 4.549818 56.901818 0 12.846545 10.426182 23.272727 23.272727 23.272727s23.272727-10.426182 23.272727-23.272727c0-21.562182-1.722182-43.194182-5.131636-64.302545C854.621091 844.683636 842.647273 836.014545 829.998545 838.097455z" p-id="4517"></path><path d="M226.187636 584.401455C114.164364 659.141818 47.278545 784.069818 47.278545 918.562909c0 12.846545 10.426182 23.272727 23.272727 23.272727s23.272727-10.426182 23.272727-23.272727c0-118.912 59.147636-229.364364 158.208-295.447273 10.693818-7.133091 13.579636-21.585455 6.446545-32.279273C251.333818 580.165818 236.881455 577.256727 226.187636 584.401455z" p-id="4518"></path><path d="M954.181818 593.454545l-104.727273 0c-12.846545 0-23.272727 10.426182-23.272727 23.272727s10.426182 23.272727 23.272727 23.272727l104.727273 0c12.846545 0 23.272727-10.426182 23.272727-23.272727S967.028364 593.454545 954.181818 593.454545z" p-id="4519"></path><path d="M756.363636 395.636364c-12.846545 0-23.272727 10.426182-23.272727 23.272727l0 174.545455L581.818182 593.454545c-12.846545 0-23.272727 10.426182-23.272727 23.272727s10.426182 23.272727 23.272727 23.272727l151.272727 0 0 151.272727c0 12.846545 10.426182 23.272727 23.272727 23.272727s23.272727-10.426182 23.272727-23.272727L779.636364 418.909091C779.636364 406.062545 769.210182 395.636364 756.363636 395.636364z" p-id="4520"></path></svg>